<svg height="73" viewBox="0 0 73 73" width="73" xmlns="http://www.w3.org/2000/svg"><g fill="none"><rect fill="#f5da55" height="71" rx="14" stroke="#000" stroke-width="2" width="71" x="1" y="1"/><g fill="#000" transform="matrix(.93969236 -.34202086 .34202086 .93969236 6 35.457543)"><path d="m50.3930117.67402668c-.1481734.67402667-.3889281 1.17273287-.7130709 1.50509551l-.2314533-.14774077c.2500561-.63714556.3704335-1.00649747.3611321-1.09886249l-.0647853-.10155825c-.0833881.00919324-.1944641.23080438-.3333361.67402667l-.1203773.00919324c-.0093014-.08306362-.0277961-.14774076-.0647853-.2124179l-.0555921.00919324c-1.0923731 3.0380952-1.5835084 4.45060939-2.5928179 6.78688189-.1851627.60015629-.3426375.93262709-.4815095.99730423.0093014.06467714.0462907.10155825.1203774.09236502.027796.29548152-.0462907.58176981-.2037655.86849073-.4723161 1.3388601-.7778562 2.0775639-.9352228 2.2069182l.1018827.6371456c.0093014.0646771-.027796.1108596-.1018827.1108596l-.1110759.0091933c-.0184947-.1754287-.0833881-.2586005-.1944641-.2492991l-.0555921.0091933c-.1388719.2216111-.2500561.4802115-.3241428.7756931l.111076-.0091933c.1481734-.092365.2129587-.2031165.2037654-.341664l.2222601-.0184946.1203774.0461825c-.1018827.156934-.1481734.2862883-.138872.3785451l.0555921.1015583-.138872.3324708.0093014.0553757c.1296787-.0091932.2685507.0276879.4167241.1200529.1018827-.0091932.2129587-.0553757.333336-.1292461.1296788-.0091933.5926936-.0184947 1.4071064-.0184947l.4074228-.1385475c.500004-.0091932.5740907.0091933 1.0093095-.0276879l.1759694-.0184946.0925813-.0646771.0093014.0553757c.4445202-.0369893.4815094-.0091932.8334483.0369893l.0093014.0553757-.2500561.0184947.0093014.1015582c.0740867-.0091932.138872-.0276879.194464-.0738704.0647853-.0091932.1018827.0276879.111076.1015583-.1018827.0091932-.2129587.0369893-.3426375.0738704l-.1110759-.0369893c-.1759694.0461825-.138872.0553758-.2500561.0646771l-.1759695-.0369892c0 .0276879-.0093013.0461825-.0369892.0553757.0093014.0646772.0369892.1015583.1018827.092365l.2129587-.0184946-.0925813-.0369893c0 .0276879.0184946.0461825.055592.0461825l.9167282-.0830636.3518307-.0738704c0 .0276879.0184946.0461826.0462907.0461826l.166668-.0646772.3148414-.0276879c.2500561-.0184946.2407547-.0369892.7685548-.1200529 0-.0276878.0093014-.0461825.0369893-.0461825v.0461825c1.0093095-.1662354.9167282-.156934 1.1296868-.2308043l-.0462906-.1108597c-.2870454.0646772-.2778522.0276879-.4259174.0461825l-.7685548.0369893-.0093014-.0553758.4259174-.0553757.1574748-.0091932.083388-.0646772.0093014.0553758c.6018868-.0553758.8148455.1015582 3.6207303-.4894048.1481734-.0091933.138872-.1385476.2314533-.3970398-.055592 0-.1018827-.0091933-.1481734-.0369893-.2314533.092365-.3518306.0461825-.7963508.1200529-.0369893 0-.0647853-.0276879-.0833881-.1015583v-.0461825l.4259174.0184947c.0740867-.0091933.2407547-.0184947.4630148-.1477408.0462906.0276879-.0369893.0553758.0093014.0461825l.0740867-.0091932c.0462906 0 .0647853-.0369893.0647853-.1108597l-.0462907-.1015582c-.2870454.0276878-.4259174.0369892-.6574788.1662354l-.0093014-.0553758-.3518307.0369893c-.0093014-.1108597-.0369893-.156934-.0833881-.156934l-.1851627.0184946c-.2129586.0184947-.3148414.0091933-.4167241.092365 0-.0369892-.0184946-.0553757-.0369893-.0553757l-.2037654.0184946-.1203774.0646772c0-.0369893-.0184946-.0553758-.0369892-.0553758l-.0740867.0646772-.0093014-.0553758-.2778522-.0184946-.0647853.0091932.0093014.1015583.1481734.0369892.1296788-.0091932c.0462906.0276879.1018827.0369893.1574748.0369893l.1203773-.0553758v.0461825c-.6574788.1662354-.6574788.1292462-1.1111922.2124179-.0555921-.0369892-.0925814-.0461825-.111076-.0461825-.0462907.0461825.0555921.0091933.027796.0091933-.0740867.0091932-.1110759-.0276879-.1203773-.092365l.2314533-.0276879c.0184946 0 .027796.0184946.1574748.0461825.1851626-.092365.194464-.1292461.2963468-.1385475l-.0093014-.1015583c-.6481775.1292461-.3889281.0461825-1.2037736.1108597h-.0369893l-.0093014-.1015583c1.046407-.1292461.6944681-.0553757 1.046407-.156934 0 .0369893.0184946.0553757.0369892.0553757.0369893-.0369892.0925814-.0646771.1481734-.0646771l.0740867-.0091932c.3611321-.0276879.4908108.0461825 1.213075-.156934v.0461825l.1203773-.0553758.111076-.0091932c-.0093014-.1108597.1574748-.1200529.2037655-.1292461l-.0093014-.1108597c-1.2686671.2586004-1.6020031.18473-1.9543746.2862883v-.0461825c-.333336.0646771-.3426374.0276879-.4259173.0369893-.0277961 0-.0647853.0276878-.1018828.0646771 0-.0369893-.0184946-.0553758-.0462906-.0553758-.0555921 0-.0277961.0184947-.0740867.0646772l.0740867-.0646772-1.101999.1754287c0-.0276879-.0184947-.0461825-.0462907-.0461825-.5555961.1200529-.4074227.1385475-1.1574829.2031165-.0369893 0-.0833881.0184946-.138872.0553757 0-.0276878-.0184946-.0461825-.0555921-.0461825l-.4630147.0369893-.3055401.0738704c0-.0276879-.0184946-.0461825-.055592-.0461825-.1759694.0461825-.3241428.0738704-.4445202.0830636h-.0093014c-.0740867.0091932.0369893-.0184946-.0184946-.0461825l-.0925813.0553757c-.138872.0091933-.0647853-.0091932-.5278001 0-.8148455.1015583-.7222642.1108597-.8148455.1200529l-.30554-.0184946c0 .0276879-.0093014.0461825-.0462907.0553757-.3426374-.0461825-.5186068-.1015582-.5278001-.1662354.0462907-.3231694.1203774-.4894048.2407547-.5078994l.0555921-.0091932-.0555921.1108596.0555921-.0091932c.111076-.0553758.1574748-.1108597.1574748-.1662354l-.0093014-.1108597-.111076.0091933-.0093014-.1015583c-.0093014-.0830636 0-.1477408.0277961-.2124179l.2500561-.3970398.0093014.1015583.1203773-.0091933-.0093014-.1015582-.0647853-.1015583c.0833881-.0738704.1574748-.1200529.2129587-.1200529l-.0093014-.0553757-.1574748.0091932-.0093014-.156934c.3148415-.6648334.4723162-1.05267996.4630148-1.15423821l.111076.04618251c.0740867-.00919324.111076-.04618251.1018827-.12005289l-.1110759.00919323v-.0461825c-.0093014-.08306362.0093014-.15693401.0369892-.22161115.1759694-.17542864.2500561-.36015867.2314534-.55408194.0369892 0 .055592.01849463.055592.05537575.1481734-.08306362.2592494-.30467477.3426374-.67402668.2592494-.47091016.6296829-1.41251418 1.1111923-2.8163759.9260296-2.48390511.8889322-2.75169877 1.0186109-3.33336043l-.111076.00919324c.0093014.07387039-.0093013.14774077-.0462906.21241791-.0740867-.02768787-.138872-.04618251-.1759694-.04618251v-.04618251c-.0184947-.2124179.0740867-.47091016.2778521-.77569308h.0462907l.0925813.36015867.111076-.00919324c0-.02768788.027796-.1662354.083388-.43370459-.0093013-.05537574-.0462906-.08306362-.1296787-.09236501l-.1018827.06467714c-.0093014-.07387038 0-.26779365.0093014-.59096306l-.1018828.01849464m-1.3334523 1.59746053.0555921-.00919324c-.0833881.14774076-.1481734.23080438-.2129587.24010578l-.0093014-.15693401c.0462907-.00919324.1018827-.02768787.166668-.07387038m-.4630148 1.10805573c.111076-.45241553.2222601-.71101595.3241428-.77569309l.0093014.05537575c-.055592.42472766-.1481734.63714556-.2778521.65542388l.0184946.26779366c-.1018827.13854752-.1481734.24929902-.138872.33247079l-.055592.00919324-.0277961-.36935191c.0555921-.00919323.111076-.06467714.1481734-.17542863m-.1759694.60015629c.0093014.06467714-.0369893.21241791-.1203773.43370459l-.0555921.00919324-.0093014-.15693401c.0647853-.18473003.1296787-.27698689.1851627-.28628829m-3.0467477 6.71322779.055592.1015583c.0833881-.0091933.1203774-.0461825.111076-.1108597l-.0093014-.0553757-.055592.0091932-.1018828.0553758m1.4631311 1.209614v.0461825c.0833881-.0091933.166668-.156934.2407547-.4432223l-.1110759-.0369893c-.0925814.249299-.1296788.3878466-.1296788.4337046m9.3716963.3231694v.0461825l-.0925813.1108597.1759694-.0646772h.0184946l-.0093013-.1015582h-.0369893l-.0647853.0553757c0-.0276879.194464-.0830636.0462907-.1108596-.0277961.0461825.0462906.0553757-.0369893.0646771m.3611321.3324708.2500561-.0184946c-.0093014-.0646772-.1666681-.0830637-.2222601-.0830637h-.0369893l.0093014.1015583m-4.4262743.092365.0740867.092365c0-.0276879.0093014-.0461825.0369892-.0461825l.0555921.1015583-.2314533-.0276879c-.0184947-.0738704.0093014-.1108597.0647853-.1200529m-.7592534.0830636c.083388-.0091932.1388719.0461825.1388719.1200529h-.2592493v-.0461825c.027796-.0091932.0740867-.0276879.1203774-.0738704m.5926935-.0276878.0093014.0553757-.2129587.0184946-.0093014-.0553757zm-2.1482978.2216111c0 .0276879.0184946.0461825.0555921.0461825.3426374-.0646771.30554-.0738704.4723162-.092365.055592-.0091932.083388.0276879.0925813.092365l-.9538256.0830636.0925813.0461825-.0093014-.0553757-.3611321.0276879-.0093014-.0553758.3241428-.0276879zm.9820543-.0830636v.0461825c-.0277961 0 .0925813.0091932.0369892.0553757-.2037654-.0184946-.2129586-.0369892-.361132-.0276878v-.0461825zm.2407547-.0276879v.0461825l-.1759694.0184946v-.0461825zm-5.9265029.9418203.0093014.156934c-.055592.0091933-.1018827-.0276878-.1203773-.1015582v-.0461825zm7.9267355-.1385475.0093014.1015583.1851626-.0184947-.0740867-.0461825.0093014.0553758.1851627-.0738704c1.268667-.1385475 1.4168404-.0830636 1.3982376-.2308044v-.0461825c-1.2778603.2862883-1.4445283.2308044-1.713079.2586004m1.9816297-.1754286.1851627.0369892-.0093014-.1015582-.1851627-.0369893zm-5.4819827.3601586c.0555921.0276879-.0647853.0553758.0093014.0461826l.6481775-.0553758.0093014.0553758c-.1851627.0184946-.30554.0461825-.3426375.0830636 0-.0369893-.0184946-.0553758-.055592-.0553758l-.2778521.0276879-.0093014-.0553757c.0740866-.0091933-.0369893-.0091933.0184946-.0461826m3.0002407-.0738703.055592.1015582c.2129587-.0461825.0925814-.0369893.1481734-.0830636 0 .0369893.0184947.0553757.0369893.0553757l.1481734-.0091932-.0093014-.1108596-.3889281-.0091933zm-3.667021.3970397h-.0369892l-.0093014-.1015582h.0369893zm-2.8983579.3508573.0093014.0553758 1.7038858-.1385476-.0093014-.1015582-1.3612484.1108596-.2870454-.0369892zm1.8983498-.1015582h.0184947l-.0093014-.1015583h-.0184947z"/><path d="m21.9556186 5.45753948c-1.2037736 1.43122513-1.8242631 2.21611146-1.8705538 2.37304546-.4908108.50789943-.7315655.8125742-.7037695.91413246-.1296788.08306362-.1851627.1662354-.166668.25860041-.0369893.00919324-.0647853-.00919324-.0740867-.04618251-.2129587.34166404-.5186069.55408194-.9352229.65542389l-.4347861.10155825c-.0555921.00919324-.0833881.05537575-.0833881.12924613l.0093014.05537575.166668-.03698927.0093014.04618251-.3704334.13854754-.6574789.1477407-.3426374.0184947c-.0462907.0461825.2685507-.0091933.1481734.0276879l-.4259174.1015582c-.2592494.0646772-.4074227.0369893-.4259174-.0646771l-.0462906.0091932c.027796.1015583 0 .1662354-.0740867.18473l.0833881-.0184946-.0369893-.156934-.7778562.18473.0833881.0369893c-.0093014-.0369893-.0462907-.0461825-.1203774-.0276879l-.1018827.0830637-.1203774-.0276879c-.1110759.0646771-.1851626.1015582-.2037654.1015582l-.1203774-.0276878c-.3241428.18473-.0833881.18473-.1018827.18473l.027796.1015582.1851627-.0461825.2870454-.0184946-.0277961.1200529c-1.0556001.2769869-.2870453.1200529-.5740907.18473l-.0555921.0091933.0277961.1015582.166668-.0369892.0093014.0553757c-.2129587.0461825-.3333361.092365-.3704335.1385475l-.0093014-.0553757c-.2778521.0646771-.5555961.2769869-.8334482.6279523.0462906.2031165-.5555962.4524155 2.2777602-.2031165.194464-.0091932.30554-.0091932.333336-.0184946-.0093014-.0369893.0093014-.0553758.0462907-.0646772.3148414-.0369893.166668.0184946.3611321-.0276879l.6111881-.1385475-.1296787.0738704c-.0093014-.0276879.0093014-.0461825.0369893-.0553757.0740867.0184946.1481734.0091932.2314533-.0091933l.0369893.156934-2.4168486 3.823306-.5371015.6648335-.2592493.8772513.0462906-.0091932.2592494-.1108597-.0833881.341664.027796.1015583.0740867.092365c-.0369892.0091932-.0462906.0276879-.0369892.0646772l.0093014.0553757.1110759-.0276879c.1574748-.1385475.2222601-.2677936.2037655-.3785451.1759694.0276879.2870453.0369892.3426374.0276879l.0093014.0553757c-.1018827.0276879-.1574748.1108597-.166668.249299l.0093014.0553758.055592-.0091933c.8797389-.9511217 3.0188435-4.2106117 4.7411158-6.426615-.0555921-.2401058.8426415-.5724685 2.6947007-.9973043l.055592-.0091932c.0647853.2862883-.0740867.9880028-.4259174 2.10536-.2314533.6740266-.333336 1.0433785-.3241428 1.0988624-.2963467.8956379-.4347861 1.3758494-.4167241 1.4497198l-.6574788 2.1422411c-.4259174 1.0988625-.7500602 2.2531007-.9723203 3.4717998.0369893-.0091933.1018827 0 .1759694.0184946l.0925814-.0830636c.0093013.0369892.027796.0461825.0740866.0461825l-.0369892-.156934.2870454-.0091933c.083388-.0184946.1574747-.1292461.2129586-.3231694-.0093014-.2862882.0462907-.4432222.1759695-.4802115.1759694-.6833281.2870453-1.0341854.3241428-1.0433786.166668-.6833281.2870453-1.0711746.3704334-1.1727329.2500561-.8864446.4259174-1.3481615.5461866-1.3758494l.027796.1108597-.1759694.4709102c-.3148414 1.394344-.6389842 2.5027242-.9630188 3.3149739l.0925813.4063412.055592-.0091933c.7871576-1.6805241 1.9075431-5.0043668 3.3798674-9.9730423.0462907-.43370457.2500561-.77569307.6296829-1.01569069l-.0833881-.08306362-.0093014-.04618251c.166668-.03698927.2870453-.10155826.3518306-.19392327-.0093013-.03698927-.1574747-.09236502-.4445201-.1662354l.8706538-3.71190557c.2592494-1.10805573.4347862-2.07756393.5278001-2.92669478l-.0093014-.05537575c-.1759694-.11085965-.3518307-.26779365-.5093054-.47091016v-.22161115l-.0093014-.0461825-.0462907.00919324c-.5371015.8125742-1.6113045 2.22530469-3.1947047 4.2386241m1.2315696.84026207c.0462906.19392328-.0277961.55408195-.2129587 1.08036786-.0555921.66483344-.2963468 1.04337858-.7130709 1.14504499l-.0093014-.05537574-.3704335.13854752-.166668.03698927c-.0833881.01849464-.1574748.01849464-.2314533-.00919324l-.0369893-.14774076c-.0093014-.05537575.5186069-.79407957 1.6113045-2.20691822l.1296787.01849464m-.8519429 2.30847647.1203774-.02768788.027796.10155826c-.5833921.17542864-.9075349.26779365-.9723202.28628829-.0369893.00919324-.0925814.03698927-.1574748.09236501-.0093014-.03698927-.0833881-.03698927-.2314533-.00919324-.0277961-.10155825.3796267-.24929901 1.2130749-.44322229m-5.7506416 1.55127805.1296788-.0276879-.027796-.1108597-.1296788.0276879zm1.6945844-.44322232.0277961.10155826-.2778522.01849463-.0093014-.05537575.2592494-.06467714m-3.2409954 1.06187322.0093014.0553757-.1759694.0369893-.0093014-.0553757zm-.3241428.6740267.0093014.0461825-.2129587.0461825-.027796-.1015583zm.5093054-.1108597.0093014.0461825-.3889281.092365-.0093014-.0461825zm.6759735-.1108596.0093014.0553757-1.0186109.2308044-.027796-.1015582c.5926935-.1015583.5278001-.0646772 1.0371055-.1847301m5.1027886-1.1819261.0833881.092365c-.1203774.0276879-.2129587.0646772-.2592493.1108597l-.1203774-.0184947c-.1851627.0738704-.3518307.1292462-.4815094.156934l-.111076.0276879c-.0647853.0184947-.111076-.0091932-.138872-.0738704l.7685548-.1754286.2592494-.1200529m.5461865-.12005288.5461866-.12924613.0093014.05537575c-.2963468.06467714-.5278001.13854752-.6944681.22161116l-.0093014-.0553758c.0462907-.0091932.0925813-.04618247.1481734-.09236498m-5.7409076 1.55127798.2592494-.0553757.027796.1015582c-.111076.0276879-.027796.0276879-.166668.0923651-.2685508.0276878-.2129587-.0091933-.6389842.092365l-.0093014-.0553758.5278001-.1754286m.7037695-.1200529c.0740867-.0184946.1203773.0091932.1296787.0830636l-.1574748.0369893c-.0647853.0184946-.1110759-.0091932-.1388719-.0830636zm-2.898358 5.8357602.0093014.0553757c.0740867-.0184946.1018827-.0553757.0833881-.1292461l-.0093014-.0553758c-.0647853.0184947-.0925813.0553758-.0833881.1292462m.2222601.9234338c.0184946.0646772.055592.092365.1296787.0738704s.1018828-.0553757.0833881-.1292461l-.0093014-.0553758-.1110759.0276879-.0925814.0830636m5.9079001 1.5882673c.0740867-.0184946.111076.0091932.1296787.0738704l.0093014.0553757-.2129586.0461825c.0184946-.0738703.0184946-.1292461.0093014-.1662354l.0647853-.0091932"/><path d="m28.3173402 2.6227771c-.4815094.34166404-1.0279123.69252131-1.6385597 1.03418535l.0093014.10155825c.0369893 0 .0925813-.02768787.166668-.07387038.0740867-.00919324.111076.02768787.1203774.09236502l.1018827-.05537575h.0462907v.04618251c.0093014.05537574-.3796267.35085727-1.1389883.88644458l.0555921.11085965h-.0462907l-.1203774-.04618251c0 .03698927-.0462906.06467714-.1574748.07387038v.04618251l.1203774.14774076c-.0369893 0-.1018827-.00919323-.1759694-.0461825-.2500561.01849463-.4908108.20311651-.7315655.5355873l.055592.10155826c.2129587-.19392327.3333361-.29548153.3704335-.29548153l.0093014.156934c-.0369893 0-.0925814.02768788-.166668.07387039l.1388719.19392327c.2500562-.27698689.5278001-.50789944.8241469-.70182271.1481734.04618251.2314533.09236502.2314533.13854753l.111076-.00919324c.8334483-.60945769 1.6482937-1.04337859 2.453946-1.31084777l.0093013.10155825c-.1481733.22161115-.2500561.3324708-.30554.34166404.0093014.07387038.0277961.13854752.0647853.20311651.0093014.13854752-.3518306 1.06187322-1.0923731 2.7701934-1.6945844 3.96131273-3.1114248 6.89763333-4.2591737 8.79955233 0 .0369893.027796.092365.0740867.156934.2870454-.0646771.4630148-.1385475.5371015-.2031165h.0462906l.0093014.1015583.1203774-.0091933.1018827-.0553757c0 .0276879.0369893.0461825.111076.0369893l.0093014.1108596c.0093014.1015583-.0555921.2586004-.1759694.4802116-.1203774.1292461-.2500562.4063411-.3796268.8217674l.0093014.0553758.111076-.0091933c.4630148-.5170927.8056522-1.0156907 1.046407-1.5141806 1.3427537-.3970398 2.3613646-.7756931 3.0743273-1.1542382.7222642-.0646772 1.2593657-.249299 1.6299073-.554082l-.0093014-.0553757-.2778521.0830636-.0555921.0091933-.0093014-.0553758c.5278001-.0738704.8889322-.1939233 1.0837207-.3508573 1.0186109-.7848863 1.7871657-1.3388601 2.315074-1.6621376 1.6113044-1.1819261 2.3705578-2.3084765 2.2777602-3.39803759-.0093014-.11085966-.3611321-.55408195-1.0649016-1.32966688-.0093014-.14774076.2314533-.36015867.7222642-.63714556l1.4071064-1.21891538c.3148414-.39703978.500004-1.04337858.5555961-1.93912456l-.0184947-.20311651c-.055592-.61865093-.5093054-1.11724897-1.3612483-1.50509551-.5093055-.34166404-1.4168404-.52628591-2.7222804-.56327518-1.0556002.07387038-2.4724406.46171692-4.2224008 1.14504499m7.5373747.07387039-.055592.11085965-1.5557124-.65542389c1.0464069.04618251 1.5835084.22161115 1.6113044.54510501m-6.3152146 4.32147142c.111076-.58176982.2314533-.90493922.3611321-.9788096l1.1760857-2.6227771c-.0093014-.156934.2314533-.28628829.7407587-.37854515l.1666681-.01849463.0093014.156934c.500004-.08306362.8056522-.12924613.9352228-.13854752.9260296-.08306362 1.4071064.11085965 1.4445283.55408194l.1110759-.00919324-.0184946-.24929902.111076-.00919324c.2685507.14774076.4074227.3231694.4259173.53558731.0093014.14774076-.0647853.33247079-.22226.55408194-.0740867.00919324-.111076-.04618251-.1203774-.14774076l-.111076.00919323-.0369892.31397617c-.4723162.71101594-.8056523 1.07117461-1.0186109 1.08912847-.1851627.25860041-.3055401.38784654-.3611321.38784654-.1481734.17542864-.5461866.48021156-1.2037736.89563782-.2222601.01849464-1.0279123.3324708-2.4261499.94182033-.0647853-.02768787-.1481734-.03698927-.2222601-.02768787l-.0093014-.10155826c-.0184946-.19392327.0740867-.44322229.2685507-.7570903m6.4634962-3.23180216.0093014.11085965c-.055592 0-.1574748-.1662354-.3241428-.49859804l-.0093014-.10155826c.1018827-.00919323.2129587.15693401.3241428.4894048m-10.2596551 1.25579649.0093014.05537575c-.0369892 0-.0925813.02768788-.166668.06467714h-.0462907l-.0093013-.10155825zm3.3984702-.08306362.0093014.15693401c-.055592 0-.1203773.08306362-.2037654.22161114l-.0093014-.10155825c.0925813-.12005289.138872-.21241791.138872-.2769869h.0647853m-.5278001 1.08912847.0184946.20311651-.055592.00919324-.0184947-.20311651zm-.1296788.37854515c-.0093014.17542864-.055592.26779366-.138872.2769869l-.055592.00919323c.0647853-.12005289.0925813-.2124179.0833881-.27698689zm-.2407547.54510502.0093014.05537574-.0925813.1662354-.111076.00919324-.0093014-.05537575c.111076-.00919324.166668-.06467714.1574748-.17542863h.0462907m-.2314534.4894048-.0369892.26779365h-.0462907l-.0184946-.26779365h.1018827m5.7042428.19392327.2314533.13854752c.0093014.06467714-.027796.11085965-.1018827.11085965-.1018828-.06467714-.1759695-.09236501-.2314534-.08306362v-.156934l.1018828-.00919324m-4.4635881.59096305.0093014.10155826-.2222601.01849463-.0093014-.10155825zm3.6026682.37854515c.1574748.07387038.2314534.13854753.2407548.19392327v.04618251c-.1481734.00919324-.2870454-.06467714-.4167242-.23080438l.1759694-.00919324m-4.6393411 1.1357436c.6296828-.05537575 1.6204977-.35085728 2.981746-.88644458l.3426375-.02768788c.6852748-.05537574 1.1940395.07387038 1.5372177.39703979l.0184947.20311651c-.2500562.72020916-.5278001 1.14504496-.8334483 1.27429116l-1.3982376 1.1265503c-1.046407.6833281-1.6113045 1.0249921-1.7038858 1.0341854-1.6667884.9141324-2.7038939 1.3850426-3.1114248 1.4220319l-.0555921.0091932c.0369893-.1939233.7778562-1.708212 2.2223845-4.5522758m1.5094217-.6001563.0093014.05537575-.22226.01849464-.0093014-.05537575zm5.046764-.23080438.0369892.42472766c-.055592.10155825-.1018827.156934-.1574748.16623539l-.0647852-.72020918c.1203773.03698927.1851626.08306362.1851626.12924613m-8.5475494 3.61964868c-.0740867.3508573-.1481734.5355873-.2222601.5355873v-.0461825c-.0277961-.1662354.0462906-.3324708.2222601-.4894048m1.3982376 1.9760057c.4074227-.0738704 1.5282408-.6554239 3.3614809-1.7543945l.0093014.1015582c0 .0461825-.1481734.1847301-.4723162.4063412-.9260296.4617169-1.4816257.7663917-1.6482937.9234339-1.0093096.3508572-1.5094218.5724684-1.5001204.6554238-.8982335.3508573-1.4816257.6094577-1.7686711.7756931-.0647853.0091933-.166668-.0184946-.2870453-.0830636-.0184947-.18473.0647853-.3231694.2407547-.4337046.1574748-.0091932.30554.0091933.4445201.0646772.1666681-.0830637.4537134-.1754287.8706539-.2862883l-.0093014-.1015583-.3426375.0276879c.0369893-.0646771.3611321-.2124179.9630189-.4524155l.166668-.0184947v.0461825c-.2870454.0276879-.4445201.1108597-.4815094.2586005.0093014.0646771.0462907.1015582.1203773.092365.2314534-.1108597.3333361-.1939233.3333361-.2216112m-1.7315737-1.2649897v.0461825c.0093014.0738704-.027796.1200529-.1018827.1200529l-.0093014-.0553758c0-.0461825.0369893-.092365.111076-.1108596m2.6299153.7202092c-.1296787.0091932-.3796267.1200529-.7500601.3231694l-.0555921.0091932-.0093014-.1015582c.2685508-.0276879.5093055-.1292462.6944681-.3139762.0740867-.0091932.111076.0184946.1203774.0830636m-2.7222804.7570903.166668-.0184946.0093014.0553757c-.0369893 0-.0925813.0276879-.166668.0646772l-.111076.0091932c-.0093014-.0553757.0277961-.092365.1018828-.1108596m-1.1204937.6186509.111076.0461825c-.0369893.3231694-.138872.4894048-.2870454.498598-.1296788-.0553757-.2407547-.0830636-.3426374-.0738703l-.0093014-.156934c-.0093014-.0553758.027796-.0923651.1018827-.1108597.0740867-.0091932.1110759.0461825.1203773.1477408.1851627-.2308044.2870454-.3508573.3055401-.3508573"/><path d="m6.51962901 2.16073571c-.62968281.46171692-1.35194695.91413245-2.15759919 1.35735474l.0093014.13854753c.05559206 0 .12037736-.03698927.21295868-.08306362.09258133-.00919324.14817339.02768787.14817339.12005289l.14817339-.08306362.07408669-.00919324.0093014.06467714c.00930139.06467714-.50000407.46171692-1.50942175 1.17273287l.08338809.12924613-.07408669.00919324-.15747478-.05537575c0 .04618251-.0647853.07387038-.21295869.08306362l.0093014.07387038.16666802.18473004c-.05559206 0-.12967875-.00919324-.22226008-.04618251-.3241428.02768787-.64817745.26779365-.96301886.71101594l.08338809.12924613c.27785214-.24929902.43478614-.37854515.48150943-.37854515l.01849463.20311651c-.04629066 0-.12037735.03698927-.21295868.08306363l.17596941.25860041c.33333605-.36015867.69446812-.66483344 1.10199901-.91413246.20376545.05537575.30554001.11085965.30554001.18473004l.14817339-.00919324c1.08372068-.80338096 2.15759919-1.37584938 3.22250077-1.7358999l.0093014.13854753c-.19446406.29548152-.33333605.44322229-.40742274.45241553.00930139.10155825.04629066.18473003.10188272.26779365.01849464.18473003-.46301479 1.39434402-1.44452828 3.64733658-2.24098728 5.22608615-4.11100032 9.08616515-5.62085468 11.59754175 0 .0461826.03698927.1200529.08338809.2031166.37043346-.0923651.61118818-.1754287.7130709-.2677937l.08338809-.0091932.0093014.1385475.13887199-.0091933.14817338-.0830636c0 .0461825.05559206.0646772.14817339.0553758l.0093014.1385475c.00930139.1385475-.0647853.3508573-.24075472.6371456-.15747478.1754286-.31484141.5355873-.49081082 1.0803678l.00930139.0646772.13887199-.0091933c.60188679-.6740267 1.06490158-1.3388601 1.37974299-1.9853071 1.76867109-.5170926 3.11142481-1.0249921 4.04664764-1.5239146.93522283-.0830636 1.65759513-.3231694 2.13910456-.7295105l-.0093014-.0738704-.35183068.1015582-.08338808.0091933-.0093014-.0738704c.68527488-.1015583 1.1667843-.2586004 1.42603365-.4617169 1.34275373-1.0341854 2.35206323-1.763696 3.03701363-2.1976169 2.1206099-1.551278 3.1206181-3.0467476 3.0002407-4.4689958-.0093014-.1477408-.4815094-.7295106-1.3982376-1.74563394-.0184946-.19392327.30554-.47091016.9538256-.84026207l1.8429741-1.61595516c.4074227-.52628591.6574788-1.37584938.7407588-2.54858225l-.027796-.2769869c-.0740867-.82176744-.6667803-1.48660087-1.7964672-1.99450031-.6667802-.45241553-1.8612524-.69252131-3.5832002-.72020918-1.4168404.12924613-3.28728606.62795232-5.5838654 1.51418059m9.9265354.12005289-.0555921.13854753-2.0560409-.85875671c1.3704416.05537575 2.0744274.29548153 2.1113085.72020918m-8.31555537 5.68801941c.138872-.7570903.29634678-1.19079489.47231619-1.29278576l1.53721778-3.44422008c-.0184946-.2124179.30554-.37854515.9820543-.4894048l.22226-.01849463.0184947.19392327c.6667802-.10155825 1.074203-.156934 1.2315696-.17542864 1.2223763-.10155825 1.8516265.13854753 1.9075431.73870382l.138872-.00919324-.0277961-.35085727.1481734-.00919324c.3611321.19392327.5555961.43370458.5740908.72020918.0184946.19392327-.0833881.43370459-.3148414.72020919-.0925814.00919324-.1481734-.05537575-.1574748-.19392327l-.1481734.00919323-.0369893.41553442c-.6203814.92343385-1.0649016 1.39434402-1.3427537 1.42203189-.2500561.34166404-.4074227.51709267-.4723162.52628591-.194464.23080439-.7222641.62795233-1.5927017 1.18192611-.2870453.02768788-1.35194692.43370459-3.1947047 1.23730186-.09258133-.04618251-.18516266-.05537575-.29634678-.04618251l-.00930139-.12924613c-.01849464-.26779365.09258133-.60015629.36113207-1.00649747m8.5096949-4.24727657.0093014.12924613c-.0740867.00919324-.2129587-.2124179-.4167241-.65542388l-.0093014-.12924613c.1296788-.01849464.2685508.20311651.4167241.65542388m-13.51946955 1.64364304.0093014.06467714c-.04629067 0-.12037736.03698927-.21295869.08306362l-.07408669.00919324-.0093014-.12924613zm4.47224054-.11085965.01849463.20311651c-.06478529.00919324-.15747478.10155825-.26855074.29548153l-.00930139-.13854753c.12967875-.156934.19446405-.27698689.19446405-.36015867h.06478529m-.68527487 1.44052653.02779603.27698689-.07408669.00919324-.02779603-.2769869zm-.17596942.49859803c-.01849463.23080439-.07408669.35085728-.19446405.36015867l-.07408669.00919324c.08338809-.156934.12967875-.26779365.12037736-.35085727zm-.30554001.72020919.0093014.06467714-.12967876.22161115-.13887199.00919324-.00930139-.06467715c.13887199-.00919324.20376544-.08306362.19446405-.22161114zm-.31484141.6463388-.03698927.34166404-.07408669.00919323-.02779603-.34166403zm7.51033578.24929902.30554.18473003c.0093014.09236502-.0369893.14774077-.1296788.156934-.1296787-.08306362-.2314533-.12005289-.30554-.12005289l-.0184946-.20311651zm-5.88042852.78488633.00930139.12924612-.28704538.02768788-.00930139-.12924613zm4.74111572.48021152c.2037655.0923651.30554.1847301.3148414.2586004l.0093014.0646772c-.194464.0184946-.3704334-.0830636-.5371015-.3046748l.2129587-.0184946m-6.11188178 1.4959023c.83344826-.0738704 2.14829779-.461717 3.93578798-1.1634315l.4347861-.0369893c.907535-.0738704 1.5835085.092365 2.0279205.5170927l.027796.2769869c-.333336.9603149-.7037695 1.5141806-1.101999 1.6898255l-1.85162655 1.4682144c-1.37974299.9049392-2.12060992 1.3573548-2.23168588 1.3666562-2.19458846 1.2096139-3.56513821 1.8282649-4.0929383 1.8744474l-.08338809.0091932c.07408669-.2586004 1.04640695-2.2531007 2.93534724-6.0015629m2.00023256-.7848863.0093014.0646771-.29634678.0276879-.00930139-.0646772zm6.64833432-.2954816.0462907.545105c-.0647853.1477408-.1296787.2216112-.2037654.2216112l-.0833881-.960315c.1574748.0646772.2314533.1292462.2407547.1939233m-11.26982986 4.7642611c-.09258133.4709101-.19446405.7110159-.29634677.7202092l-.0093014-.0646772c-.01849463-.2401058.08338809-.4524155.30554002-.6554239m1.85162655 2.6043907c.53710149-.1015583 2.0094258-.8772514 4.42627436-2.3084765l.0093014.1292461c.0093014.0553758-.20376547.2308044-.62038144.5355873-1.2315696.6001563-1.95437453 1.0156907-2.16635981 1.2281086-1.33345232.461717-1.99093117.7478971-1.98162977.8587568-1.18527894.4709101-1.96302699.8125742-2.33356861 1.0249921-.08338809.0091932-.21295869-.0276879-.37962671-.1015583-.01849463-.2401058.08338809-.4337046.32414281-.5909631.20376544-.0184946.40742273.0091933.59269354.0923651.22226008-.1108597.60188679-.2401058 1.14828967-.3693519l-.00930139-.1385476-.43478614.0369893c.05559205-.0738704.47231618-.2677937 1.26866702-.5909631l.22226008-.0184946.0093014.0646772c-.37043347.0276878-.58339216.1477407-.62968282.341664.0093014.0830636.05559206.1292461.14817339.1200529.26855074-.1847301.40742273-.2862883.40742273-.3139762m-2.27776023-1.6713309.00930139.0646771c.0093014.0923651-.03698927.1477408-.12967875.1569341l-.0093014-.0646772c-.00930139-.0830636.03698927-.1385475.12967876-.156934m3.46314733.9418203c-.17596942.0184947-.50000407.156934-.99081489.4337046l-.07408669.0091933-.0093014-.1385476c.35183068-.0276878.65747885-.1662354.90753496-.4155344.10188272-.0184946.15747478.0276879.16666802.1108597m-3.59293424.9973042.22226008-.0184946.00930139.0738703c-.05559205 0-.12037735.0369893-.21295868.0830637l-.13887199.0091932c-.0093014-.0646771.02779603-.1200529.12037735-.1477408m-1.47232431.8217675.15747478.0646771c-.05559206.4155344-.17596942.6279524-.3889281.6463388-.16666802-.0738704-.31484141-.1015582-.4537134-.092365l-.01849463-.2031165c-.0093014-.0830636.03698926-.1292461.13887199-.156934.09258132-.0091932.14817338.0553757.15747478.1939233.25005611-.3046748.3889281-.4524156.40742273-.4524156"/><path d="m42.8004776.80338096-.1203774-.04618251-1.9724365.30467477c-.0740867-.03698927-.166668-.05537575-.2685507-.04618251-.111076.00919324-.2778522.04618251-.5278001.11085965l-.9538256.39703978.0740866.12005289c.0462907 0 .111076-.02768787.1944641-.07387038l.333336.02768788-.0462906.31397616c-.30554.13854752-.4908108.34166403-.5371015.60945769-.4630148.20311651-.6944681.35085727-.6944681.44322229l.0093014.05537575.0740867-.00919324.1296787-.06467715.1481734.17542864.0184946.24010578c.0093014.07387038-.7778562 1.72670666-2.3520632 4.94931558-1.3612484 3.10255607-2.0744274 4.80211557-2.1482978 5.10603327-.4630148.1292461-.7407588.3231694-.8148455.5724684.0093014.0830636.1481734.1292462.4167242.156934l.0093014.1200529-.1203774.2031165.0184946.2401058c.0093014.1292461.3518307.2216112 1.0186109.2954815 0-.0461825.0184947-.0646771.0647853-.0738703.0093014.1477407-.027796.4432222-.1296787.8864445l.0740867-.0091932c.2778521-.3785451.4074227-.6371456.3982295-.7848863l.055592-.0091933c.0647853-.0091932.138872.0738704.2222601.2401058-.0833881.0369893-.3796267.7018227-.8797389 2.0036936l.0740867.1200529.0740867-.0091933c.6203814-1.5604712 1.0093095-2.4285293 1.1667843-2.5946566.8148455-.0738704 2.2131912-.2124179 4.2133156-.4247276l.1203774-.0738704c0 .0461825.027796.0646771.0740867.0553757l.1296787-.0091932.1203774-.0738704c0 .0461825.027796.0646771.0740867.0553757l1.5094217-.1292461c.3982295-.0369893.5926936-.156934.5740908-.3601587-.0093014-.0553757.2314533-.1200528.7130709-.18473.0462907 0 .111076.0091933.2037654.0369893 0-.0369893.2314534-.0738704.713071-.1200529.0093013-.249299.0925813-.3878466.2407547-.3970398l-.0093014-.1200529c-.1296788.0091933-.2870454.0461825-.4630148.1015583-.3148414-.0184947-.5186069-.0369893-.6018868-.0738704-.0833881.0461825-.1481734.0738704-.1944641.0738704l-1.0556001.0369892-.1296788.0646772c0-.0369893-.027796-.0553758-.0740867-.0461825l-.0555921.0091932-.1388719.0646772c0-.0369893-.111076-.0646772-.3333361-.0923651l-.1296787.0738704-.2592494.0184947-.0093014-.0646772c1.351947-.1477407 2.0279205-.3324708 2.0094258-.5540819.0833881-.0091933.1296788.0369892.138872.1200529l.3982295-.1015583-.0093014-.1200529-3.2409954.092365c0 .0461825-.0184946.0646772-.0647853.0738704l-.3982295-.0369892c-.1018827.0091932-.1851626.0369892-.2500561.092365l-.1481734-.0553758c-.4074227.0369893-.7130709.0830636-.9167282.1477408-.2778521-.0184947-.5833921-.0184947-.9260296.0091932l-.7315655.0646772-.333336-.0369893c-.0184947-.2124179.3982295-1.2649897 1.2593656-3.1581481.2500561-.63714556.4815094-1.03418535.6944681-1.18192611.0462907 0 .111076.00919324.2037654.04618251l.5186069-.17542864.2685507.04618251c.4445202-.03698927.9630189-.1662354 1.5557124-.37854515.1481734-.00919324.2592494 0 .3333361.02768787l.3982295-.09236501 1.1760857-.10155826c.500004-.04618251 1.0464069-.156934 1.6299072-.33247079l-.0093014-.12005289c-.22226.01849463-.333336-.01849464-.3426374-.10155826-.0184946-.1662354-.1759694-.23080438-.4815094-.20311651l-.0093014-.12005289.3241428-.09236502.8519429-.07387038-.0093014-.12005289c-.0369893 0-.2037655 0-.5278001-.00919324l-.0093014-.12924613.333336-.02768787c.0833881-.00919324.1296788-.05537575.1203774-.12924613-.4445202.00919324-.6667802-.00919324-.6667802-.06467714-3.0836288.14774076-4.6207384.17542864-4.6300398.08306362-.0462907 0-.111076.02768787-.1944641.08306362l-.0833881-.12924613c.8148455-1.72670665 1.2964631-2.60439062 1.4353351-2.61304308.0093014.06467714-.0277961.17542864-.1018827.3231694l.0093013.05537575.1296788-.00919324c.3241428-.77569309.5926935-1.17273287.8241469-1.19079488.9630188-.08306362-.138872-.14774077 1.9353391-.47091017.0833881.03698927.1481734.05537575.1851626.04618251.8148455-.1662354 1.9446405-.3324708 3.3984702-.50789943l-.0093014-.12005289-.7778562.07387038-.0093014-.12005289c.0925814-.00919324.166668-.03698927.2314533-.09236502l.0093014.06467715c.0462907 0 .1018828-.02768788.1759695-.08306363.1296787-.00919324.2314533 0 .30554.03698927.2685507-.07387038.4815094-.11085965.6481774-.12924613l.4815095-.0461825c.1203773-.07387039.1759694-.13854753.166668-.20311652v-.05537574c-.1203774.00919324-.2592494 0-.4259174-.02768788-.0093014-.06467714.027796-.11085965.111076-.12924613l.8982335-.08306362.4167242-.10155825c0 .04618251.027796.06467714.055592.06467714.0462907 0 .1018827-.02768787.1759694-.08306362.2129587.02768787.3426375.03698927.3704335.02768787.166668-.156934.3611321-.28628829.5740908-.36935191-.0925814-.09236501-.138872-.16623539-.1481734-.23080438l-.6018868.05537575c0-.04618251-.027796-.10155826-.0647853-.18473004 0-.05537574.1296787-.11085965.4074227-.16623539l.1203774.0461825.1110759-.06467714c0 .03698927.0277961.05537575.0647853.04618251l.111076-.06467714c0 .03698927.027796.05537574.0647853.04618251l.0555921-.00919324-.0093014-.12005289c-.0833881.00919323-.3055401.00919323-.6574789 0l-.1110759.07387038-.0093014-.06467715c-2.8239469.23080439-4.4262744.36015868-4.8064419.39703979-.0462906 0-.2500561 0-.5926935-.00919324 0 .04618251-.0369893.07387038-.1203774.07387038l-.1203773-.05537575-.4167242.10155826c-.0925813.00919324-.2592493 0-.4908108-.01849464-.0647853.04618251-.138872.08306363-.2314533.09236502-.0925813.00919324 2.2409873-.12924613 2.1663598-.1662354l-.3611321.10155826-.055592.00919324c-.1481734.00919324-.3333361.00919324-.5555962-.01849464-.0647853.04618251-.1574747.08306362-.2963467.09236502-.0925814.00919324-.1759694-.00919324-.2407547-.04618251-.1018828.02768787-.3982295.10155826-.8982336.19392327m.1481734.36935191c0 .04618251.0462907.06467714.1203773.05537575l.0093014.12005289-.1203773.00919324c-.0925813.00919324-.1759694-.00919324-.2407547-.04618251-.0647853.05537575-.1481734.08306362-.2314534.09236502h.0369893l-.333336-.03698927-.0093014-.05537575c.4074227-.02768787.5371015-.07387038.7685548-.13854752m.30554-.02768788.0647853-.00919324.0093014.12005289-.1851627.01849464c0-.06467715.0277961-.11085965.111076-.12924613m.7130709-.07387038.0093014.06467714c-.138872.00919324-.3148414.04618251-.5278001.11085965l-.0647853.00919324.0555921-.12924613.5278001-.05537575m-5.2597226.6001563.2037654-.01849464-.0093014-.12005289-.2037654.01849464zm1.4538296-.12924613.0740867-.00919324.138872.05537574c.0093014.08306363-.0369892.12924613-.1203773.12924613l-.2037655.01849464-.0093014-.06467714c-.0093014-.06467715.0369893-.10155826.1203774-.12924613m4.6582684.26779365v.05537575l-.4167241.03698927v-.05537575zm-1.1940395.17542864.0093014.06467714-.2407548.01849463-.0093013-.06467714zm1.1482896.09236501.8334483-.13854752.4259174.01849463.0093014.06467715c-.2037655.01849463-.3796267.05537574-.5278001.11085965 0-.04618251-.0833881-.08306362-.2500561-.10155826l-.6574789.18473003c-.1296787-.07387038-.194464-.12924613-.194464-.16623539l.361132.02768787m-.8241468.18473003c.0833881-.00919324.1203773.02768788.1296787.11085965l-.3518307.03698927-.0093013-.12005289.2314533-.02768787m-.7315656-.03698927.0093014.06467714 2.1663598-.10155825-.0093014-.06467715zm.1296788.1662354v.05537574l-.4723162.04618251v-.05537575zm-3.1021234 2.44691584.0093014.06467714.138872-.00919324c0-.04618251.0093014-.11085965.0462906-.19392327l-.0093014-.12005289c-.0740867.00919324-.138872.09236501-.1851626.25860041m-4.7685873 6.90693478.0093014.0553757c.0093013.0830637-.0369893.1292462-.1296788.1385476l-.0093014-.0553758c-.0093014-.0738704.0369893-.1108596.1296788-.1385475m-.1203774.2586004c.0093014.1200529-.0740867.4155344-.2407547.8956378l-.2037655.0184947c-.0093014-.0830636.1018828-.3785452.3148414-.8956378zm2.2316859 1.9298232c.0093014.0646771-.1018827.1385475-.3148414.2124179l-.4074228-.0276879-.1296787.0091933-.0093014-.1200529.8611361-.0738704m.3982295.0369893.0093014.0553757-.333336.0276879-.0093014-.0553758z"/></g></g></svg>