<svg height="73" viewBox="0 0 73 73" width="73" xmlns="http://www.w3.org/2000/svg"><g fill="none"><rect fill="#fff" height="71" rx="14" stroke="#1c78c0" stroke-width="2" width="71" x="1" y="1"/><g transform="translate(13 9)"><path d="m23.2495466 0 23.2495466 13.1507125v26.3074327l-23.2495466 13.1507125-23.2495466-13.1507125v-26.3074327z" fill="#fff"/><path d="m42.3478175 38.5509923-18.3292937 10.3691777v-8.0742612l11.4205137-6.2839859zm1.2555957-1.1354429v-21.6815539l-6.7045204 3.8749244v13.9377127zm-39.52422919 1.1354429 18.32929369 10.3691777v-8.0742612l-11.4265213-6.2839859zm-1.25559567-1.1354429v-21.6815539l6.70452041 3.8749244v13.9377127zm.78700016-23.0873405 18.7978892-10.63351351v7.80391761l-12.0453077 6.6264211-.0961222.0540687zm39.2058245 0-18.7978892-10.63351351v7.80391761l12.0453078 6.6204135.0961221.0540687z" fill="#8ed6fb"/><path d="m22.4084777 39.0075726-11.2703228-6.1998791v-12.2735978l11.2703228 6.5062684zm1.6100461 0 11.2703229-6.1938715v-12.2796054l-11.2703229 6.5062684zm-12.1173993-19.8912787 11.3123763-6.217902 11.3123762 6.217902-11.3123762 6.530299z" fill="#1c78c0"/></g></g></svg>